# xmcd CD database file
#
# Track frame offsets:
#	187
#	11975
#	25687
#	39445
#	55232
#	66862
#	81100
#	92552
#	106577
#	120135
#
# Disc length: 1772 seconds
#
# Revision: 5
# Processed by: cddbd v1.5.2PL0 Copyright (c) Steve Scherf et al.
# Submitted via: CDex 1.79
#
DISCID=6c06ea0a
DTITLE=Aaron Tippin - You've Got To Stand For Something
DYEAR=1990
DGENRE=Country
TTITLE0=In My Wildest Dreams
TTITLE1=I've Got A Good Memory
TTITLE2=You've Got To Stand For Something
TTITLE3=I Wonder How Far It Is Over You
TTITLE4=Ain't That A Hell Of A Note
TTITLE5=The Man That Came Between Us (Was Me)
TTITLE6=She Made A Memory Out Of Me
TTITLE7=Up Against You
TTITLE8=The Sky's Got The Blues
TTITLE9=Many, Many, Many Beers Ago
EXTD=YEAR: 1990
EXTT0=
EXTT1=
EXTT2=
EXTT3=
EXTT4=
EXTT5=
EXTT6=
EXTT7=
EXTT8=
EXTT9=
PLAYORDER=
